<?xml version="1.0" encoding="UTF-8" standalone="no"?><!DOCTYPE svg PUBLIC "-//W3C//DTD SVG 1.1//EN" "http://www.w3.org/Graphics/SVG/1.1/DTD/svg11.dtd"><svg width="100%" height="100%" viewBox="0 0 166 166" version="1.1" xmlns="http://www.w3.org/2000/svg" xmlns:xlink="http://www.w3.org/1999/xlink" xml:space="preserve" xmlns:serif="http://www.serif.com/" style="fill-rule:evenodd;clip-rule:evenodd;stroke-linecap:round;stroke-linejoin:round;stroke-miterlimit:1.5;"><g><path d="M152.419,41.651c-0.288,-4.578 -4.24,-8.062 -8.82,-7.772l-126.35,7.965c-4.579,0.29 -8.063,4.242 -7.773,8.82l4.866,77.196c0.29,4.578 4.242,8.06 8.82,7.773l126.353,-7.968c4.578,-0.288 8.06,-4.239 7.772,-8.82l-4.868,-77.194Z" style="fill:#f9c85e;stroke:#e94900;stroke-width:7.42px;"/></g><path d="M67.247,95.188l-15.673,-19.775c-9.712,-11.374 -28.062,-0.103 -18.686,16.073l27.501,35.302c6.567,6.362 14.399,5.185 22.01,-3.419l52.633,-67.197c3.836,-5.761 3.052,-15.45 -2.067,-18.587c-4.925,-3.018 -10.037,-2.919 -15.367,1.219l-50.351,56.384Z" style="fill:#4d9a5b;stroke:#000;stroke-width:11.04px;"/></svg>